<svg width="40" height="40" viewBox="0 0 40 40" fill="none" xmlns="http://www.w3.org/2000/svg">
<g id="&#236;&#132;&#156;&#235;&#185;&#132;&#236;&#138;&#164;/3D">
<g id="Group">
<path id="Vector" d="M2.83116 24.1405C2.73353 32.0081 8.16033 35.3196 14.9459 31.5363C21.7314 27.753 27.3128 18.3069 27.4104 10.4474C27.508 2.57977 22.0812 -0.731636 15.2957 3.05166C8.51018 6.82683 2.9288 16.2729 2.83116 24.1405ZM4.45839 23.9534C4.54788 16.7204 9.67365 8.04725 15.9141 4.57312C22.1545 1.09899 27.1338 4.1419 27.0443 11.3668C26.9548 18.5998 21.829 27.2729 15.5886 30.747C9.3482 34.2212 4.36889 31.1783 4.45839 23.9534Z" fill="#A5A7B3"/>
<path id="Vector_2" d="M15.5886 30.7472C21.829 27.273 26.9548 18.5918 27.0443 11.3669C27.0931 7.68939 25.8238 5.1021 23.7491 3.89795L30.9089 8.05551C31.2994 8.28332 31.6574 8.55182 31.9829 8.86913L33.1952 9.56883C35.2455 10.7648 36.4984 13.3277 36.4577 16.9646C36.3683 24.1162 31.2994 32.708 25.1241 36.1414C22.0893 37.8337 19.3556 37.9639 17.3704 36.8086C17.0694 36.6296 16.7846 36.4262 16.5242 36.1984C15.9466 36.0763 15.4177 35.8648 14.9214 35.58C12.7735 34.3352 9.90957 32.6673 7.76163 31.4225C9.77125 32.5859 12.5294 32.4558 15.5967 30.7472H15.5886Z" fill="url(#paint0_linear_4_163231)"/>
<path id="Vector_3" d="M15.5886 30.7471C21.829 27.273 26.9548 18.5917 27.0443 11.3669C27.0849 7.8195 25.9133 5.28917 23.9688 4.02807L27.6626 6.17601C28.0531 6.40382 28.4111 6.67231 28.7366 6.98962L29.9489 7.68933C31.9992 8.88534 33.2521 11.4482 33.2115 15.0851C33.122 22.2367 28.0531 30.8285 21.8778 34.2619C18.843 35.9542 16.1093 36.0844 14.1241 34.9291C13.8231 34.7501 13.5383 34.5467 13.2779 34.3189C12.7898 34.2131 12.3423 34.0422 11.9111 33.8226C10.471 32.9846 9.00647 32.1303 7.76978 31.4143C9.7794 32.5777 12.5375 32.4476 15.6049 30.739L15.5886 30.7471Z" fill="url(#paint1_linear_4_163231)"/>
<path id="Vector_4" d="M27.2232 18.4128C28.2403 18.6162 29.7292 18.1524 31.1042 17.3876C31.8527 16.9727 32.5687 16.4601 33.1463 15.9231L34.0413 16.4439C33.4636 16.9808 32.7477 17.4853 31.9991 17.9084C30.1197 18.9579 28.0124 19.4379 27.2232 18.4128Z" fill="url(#paint2_linear_4_163231)"/>
<path id="Vector_5" d="M27.1989 7.42088C27.1663 10.0895 25.2462 15.5245 22.9356 16.81C22.0324 17.3144 21.2026 17.1029 20.5354 16.5008C20.9992 16.631 21.5036 16.5903 22.0406 16.2893C24.3431 15.0037 26.2714 9.56882 26.3039 6.90017C27.8579 6.75372 29.2329 7.1117 30.3394 7.90091C29.4201 7.48597 28.3624 7.31511 27.1989 7.42088Z" fill="url(#paint3_linear_4_163231)"/>
<path id="Vector_6" d="M19.9821 35.9218L19.0871 35.4011C20.275 32.887 21.0154 28.6725 20.0228 27.208C20.1204 27.208 20.2099 27.2242 20.2994 27.2487C22.1463 27.7775 21.3734 33.009 19.9902 35.9218H19.9821Z" fill="url(#paint4_linear_4_163231)"/>
<path id="Vector_7" d="M31.3808 22.9039C31.3239 22.8388 31.2588 22.7818 31.1855 22.7249C31.6249 22.8957 31.9992 23.1317 32.2758 23.4246C32.2677 23.449 31.3808 22.9039 31.3808 22.9039Z" fill="url(#paint5_linear_4_163231)"/>
<path id="Vector_8" d="M10.7883 28.3877C11.3578 28.2819 12.0738 27.9971 12.8223 27.5822C14.9296 26.4106 17.3541 24.1894 17.8992 22.0252C18.2816 20.5038 17.6714 19.3078 16.687 18.5674C18.1515 19.1857 19.2905 20.6014 18.7942 22.5459C18.2491 24.7101 15.8245 26.9313 13.7173 28.1029C12.9688 28.5179 12.2528 28.8108 11.6832 28.9084C11.7565 30.5031 12.0982 31.8699 12.6596 32.9683C12.5701 33.1392 12.4806 33.31 12.3992 33.4809C11.4636 32.2442 10.8859 30.5275 10.7883 28.3958V28.3877Z" fill="url(#paint6_linear_4_163231)"/>
<path id="Vector_9" d="M15.9059 4.56507C18.9733 2.85648 21.7395 2.72631 23.741 3.88977L30.9008 8.04733C28.8912 6.88387 26.133 7.01405 23.0657 8.72263C16.8253 12.1968 11.6996 20.878 11.6101 28.1029C11.5612 31.7804 12.8305 34.3677 14.9052 35.5719L7.7454 31.4143C5.67068 30.2102 4.40958 27.6147 4.45027 23.9453C4.53976 16.7123 9.66552 8.0392 15.9059 4.56507Z" fill="url(#paint7_linear_4_163231)"/>
<path id="Vector_10" d="M18.8512 12.0665C17.11 13.8402 15.5804 15.9719 14.3763 18.2581C16.5568 17.8676 19.5427 19.5925 18.8024 22.5296C18.2572 24.6938 15.8327 26.915 13.7254 28.0866C12.9769 28.5015 12.2609 28.7944 11.6914 28.892C11.789 31.0237 12.3667 32.7486 13.3023 33.9771C14.3682 31.7316 16.8334 28.6398 18.7617 27.5659C19.3393 27.2404 19.8682 27.1021 20.2994 27.2241C22.1463 27.753 21.3734 32.9845 19.9902 35.8973C20.6981 35.7101 21.4303 35.4254 22.187 35.0511C22.187 35.0511 22.2033 35.0511 22.2114 35.043C22.2521 35.0267 22.2928 35.0023 22.3253 34.986C22.3497 34.9697 22.3741 34.9616 22.3985 34.9453C22.4148 34.9453 22.4311 34.9291 22.4392 34.9209C22.4799 34.8965 22.5206 34.8802 22.5531 34.8558C22.5612 34.8558 22.5775 34.8477 22.5857 34.8396C22.6263 34.8151 22.667 34.7907 22.7158 34.7663C22.7565 34.7419 22.7972 34.7175 22.846 34.6931C22.8541 34.6931 22.8623 34.685 22.8786 34.6768C22.9192 34.6524 22.9599 34.628 23.0006 34.6117C23.0169 34.6117 23.025 34.5955 23.0413 34.5873C23.0657 34.5711 23.0982 34.5548 23.1226 34.5385C23.1552 34.5222 23.1796 34.506 23.2121 34.4897C23.2284 34.4816 23.2447 34.4653 23.2609 34.4572C24.0176 33.9934 24.758 33.4564 25.4658 32.8543C24.1397 31.4468 23.4806 27.0207 25.3601 24.409C25.7994 23.807 26.3283 23.3513 26.9141 23.0259C28.8423 21.9519 31.2669 22.3181 32.2839 23.4002C33.2684 21.0976 33.8949 18.7056 34.0495 16.4275C33.4718 16.9645 32.7558 17.4689 32.0073 17.892C29.9 19.0636 27.4999 19.5355 26.9954 17.9571C26.312 15.8173 29.3875 10.7159 31.5842 8.66563C30.4289 7.6893 28.9237 7.24181 27.207 7.40453C27.1744 10.0732 25.2543 15.5081 22.9436 16.7936C20.6411 18.0791 18.8268 14.727 18.8593 12.0503L18.8512 12.0665Z" fill="url(#paint8_linear_4_163231)"/>
<path id="Vector_11" d="M22.9029 19.2996C21.7151 19.9668 20.7387 21.6184 20.7225 23.0016C20.7062 24.3847 21.6581 24.9624 22.846 24.3033C24.042 23.6362 25.0183 21.9845 25.0346 20.6014C25.0509 19.2183 24.099 18.6406 22.9111 19.2996H22.9029Z" fill="url(#paint9_linear_4_163231)"/>
<path id="Vector_12" d="M22.5613 19.8284C23.4074 19.3565 24.0827 19.7715 24.0746 20.7478C24.0665 21.7241 23.3668 22.9039 22.5206 23.3758C21.6744 23.8477 20.9992 23.4327 21.0154 22.4564C21.0236 21.4801 21.7233 20.3003 22.5694 19.8284H22.5613Z" fill="url(#paint10_linear_4_163231)"/>
<path id="Vector_13" d="M23.0738 8.73081C25.238 7.52666 27.2558 7.10358 28.9562 7.37207C29.5827 7.46971 30.201 7.56734 30.8275 7.66497C29.0457 7.38834 26.9466 7.8277 24.6847 9.0888C18.1758 12.7175 12.8141 21.7812 12.7246 29.3315C12.6921 32.0734 13.3593 34.2457 14.5309 35.7102C14.1403 35.2139 13.7417 34.7257 13.3511 34.2294C12.2283 32.8219 11.5856 30.7472 11.6181 28.1192C11.7076 20.8862 16.8334 12.2131 23.0738 8.73894V8.73081Z" fill="#A5A7B3"/>
<path id="Vector_14" d="M14.4658 2.56357C17.8016 0.700396 20.812 0.562082 22.9925 1.83132L23.8224 2.31135C21.6419 1.04211 18.6315 1.18856 15.2957 3.0436C8.51016 6.8269 2.92878 16.2729 2.83114 24.1406C2.78233 28.1354 4.15733 30.9587 6.41918 32.2686L5.58929 31.7885C3.32745 30.4786 1.95244 27.6554 2.00126 23.6605C2.09889 15.7929 7.68028 6.34687 14.4658 2.56357Z" fill="url(#paint11_linear_4_163231)"/>
<path id="Vector_15" d="M24.6848 8.503C28.0206 6.63982 31.031 6.50151 33.2115 7.77075L33.9763 8.21823C31.7958 6.949 28.7854 7.09545 25.4496 8.95049C18.6641 12.7338 13.0827 22.1798 12.985 30.0393C12.9362 34.0342 14.3112 36.8574 16.5731 38.1673L15.8083 37.7198C13.5546 36.4099 12.1714 33.5867 12.2202 29.5918C12.3179 21.7242 17.8993 12.2782 24.6848 8.503Z" fill="url(#paint12_linear_4_163231)"/>
<path id="Vector_16" d="M25.4496 8.95036C32.2351 5.16706 37.6619 8.47846 37.5643 16.3461C37.4666 24.2137 31.8853 33.6598 25.0997 37.4349C18.3142 41.2182 12.8874 37.9068 12.985 30.0392C13.0827 22.1716 18.664 12.7255 25.4496 8.95036ZM14.0997 29.4209C14.0102 36.5725 18.9407 39.5829 25.116 36.1494C31.2913 32.716 36.3601 24.1242 36.4496 16.9726C36.5391 9.82092 31.6086 6.81056 25.4333 10.244C19.258 13.6774 14.1892 22.2692 14.0997 29.4209Z" fill="#E3E3E4"/>
</g>
</g>
<defs>
<linearGradient id="paint0_linear_4_163231" x1="16.4754" y1="36.4913" x2="32.406" y2="8.89354" gradientUnits="userSpaceOnUse">
<stop stop-color="#D7D7D9"/>
<stop offset="0.19" stop-color="#E2E2E2"/>
<stop offset="0.21" stop-color="#DBDBDD"/>
<stop offset="0.29" stop-color="#CDCDD2"/>
<stop offset="0.38" stop-color="#C5C5CB"/>
<stop offset="0.53" stop-color="#C3C3CA"/>
<stop offset="0.87" stop-color="#B3B4BE"/>
<stop offset="0.88" stop-color="#A5A7B3"/>
</linearGradient>
<linearGradient id="paint1_linear_4_163231" x1="14.8563" y1="35.5393" x2="30.7788" y2="7.96596" gradientUnits="userSpaceOnUse">
<stop stop-color="#B3B3B5"/>
<stop offset="0.19" stop-color="#BEBEBE"/>
<stop offset="0.21" stop-color="#B8B8B9"/>
<stop offset="0.28" stop-color="#AAAAAE"/>
<stop offset="0.37" stop-color="#A2A2A7"/>
<stop offset="0.53" stop-color="#A0A0A6"/>
<stop offset="0.87" stop-color="#91929A"/>
<stop offset="0.88" stop-color="#84858F"/>
</linearGradient>
<linearGradient id="paint2_linear_4_163231" x1="29.2979" y1="19.7308" x2="31.9096" y2="15.2153" gradientUnits="userSpaceOnUse">
<stop offset="0.12" stop-color="#A5A7B3"/>
<stop offset="0.13" stop-color="#B3B4BE"/>
<stop offset="0.47" stop-color="#C3C3CA"/>
<stop offset="0.57" stop-color="#E3E3E3"/>
<stop offset="0.58" stop-color="#E5E6E8"/>
<stop offset="0.63" stop-color="#EBEFF3"/>
<stop offset="0.67" stop-color="#EEF2F7"/>
<stop offset="0.74" stop-color="#ECF0F4"/>
<stop offset="0.78" stop-color="#E7E9EC"/>
<stop offset="0.81" stop-color="#E2E2E2"/>
<stop offset="1" stop-color="#D7D7D9"/>
</linearGradient>
<linearGradient id="paint3_linear_4_163231" x1="22.3172" y1="17.5992" x2="28.5332" y2="6.82694" gradientUnits="userSpaceOnUse">
<stop stop-color="#B3B3B5"/>
<stop offset="0.19" stop-color="#BEBEBE"/>
<stop offset="0.21" stop-color="#B8B8B9"/>
<stop offset="0.28" stop-color="#AAAAAE"/>
<stop offset="0.37" stop-color="#A2A2A7"/>
<stop offset="0.53" stop-color="#A0A0A6"/>
<stop offset="0.87" stop-color="#91929A"/>
<stop offset="0.88" stop-color="#84858F"/>
</linearGradient>
<linearGradient id="paint4_linear_4_163231" x1="18.1108" y1="34.8397" x2="21.9592" y2="28.168" gradientUnits="userSpaceOnUse">
<stop stop-color="#B3B3B5"/>
<stop offset="0.19" stop-color="#BEBEBE"/>
<stop offset="0.21" stop-color="#B8B8B9"/>
<stop offset="0.28" stop-color="#AAAAAE"/>
<stop offset="0.37" stop-color="#A2A2A7"/>
<stop offset="0.53" stop-color="#A0A0A6"/>
<stop offset="0.87" stop-color="#91929A"/>
<stop offset="0.88" stop-color="#84858F"/>
</linearGradient>
<linearGradient id="paint5_linear_4_163231" x1="31.7063" y1="23.1073" x2="31.7632" y2="23.0096" gradientUnits="userSpaceOnUse">
<stop stop-color="#B3B3B5"/>
<stop offset="0.19" stop-color="#BEBEBE"/>
<stop offset="0.21" stop-color="#B8B8B9"/>
<stop offset="0.28" stop-color="#AAAAAE"/>
<stop offset="0.37" stop-color="#A2A2A7"/>
<stop offset="0.53" stop-color="#A0A0A6"/>
<stop offset="0.87" stop-color="#91929A"/>
<stop offset="0.88" stop-color="#84858F"/>
</linearGradient>
<linearGradient id="paint6_linear_4_163231" x1="10.8045" y1="32.5534" x2="18.3467" y2="19.4786" gradientUnits="userSpaceOnUse">
<stop stop-color="#B3B3B5"/>
<stop offset="0.19" stop-color="#BEBEBE"/>
<stop offset="0.21" stop-color="#B8B8B9"/>
<stop offset="0.28" stop-color="#AAAAAE"/>
<stop offset="0.37" stop-color="#A2A2A7"/>
<stop offset="0.53" stop-color="#A0A0A6"/>
<stop offset="0.87" stop-color="#91929A"/>
<stop offset="0.88" stop-color="#84858F"/>
</linearGradient>
<linearGradient id="paint7_linear_4_163231" x1="7.38741" y1="31.2434" x2="23.318" y2="3.64569" gradientUnits="userSpaceOnUse">
<stop offset="0.12" stop-color="#A5A7B3"/>
<stop offset="0.13" stop-color="#B3B4BE"/>
<stop offset="0.47" stop-color="#C3C3CA"/>
<stop offset="0.57" stop-color="#E3E3E3"/>
<stop offset="0.58" stop-color="#E5E6E8"/>
<stop offset="0.63" stop-color="#EBEFF3"/>
<stop offset="0.67" stop-color="#EEF2F7"/>
<stop offset="0.74" stop-color="#ECF0F4"/>
<stop offset="0.78" stop-color="#E7E9EC"/>
<stop offset="0.81" stop-color="#E2E2E2"/>
<stop offset="1" stop-color="#D7D7D9"/>
</linearGradient>
<linearGradient id="paint8_linear_4_163231" x1="29.7129" y1="28.6154" x2="16.0035" y2="14.906" gradientUnits="userSpaceOnUse">
<stop offset="0.04" stop-color="#A5A7B3"/>
<stop offset="0.12" stop-color="#B3B4BE"/>
<stop offset="0.31" stop-color="#C3C3CA"/>
<stop offset="0.84" stop-color="#EEF2F7"/>
<stop offset="0.92" stop-color="#EEF2F7"/>
<stop offset="0.93" stop-color="#EEF2F7"/>
</linearGradient>
<linearGradient id="paint9_linear_4_163231" x1="23.9444" y1="23.6606" x2="21.7964" y2="19.9342" gradientUnits="userSpaceOnUse">
<stop stop-color="#B3B3B5"/>
<stop offset="0.19" stop-color="#BEBEBE"/>
<stop offset="0.21" stop-color="#B8B8B9"/>
<stop offset="0.28" stop-color="#AAAAAE"/>
<stop offset="0.37" stop-color="#A2A2A7"/>
<stop offset="0.53" stop-color="#A0A0A6"/>
<stop offset="0.87" stop-color="#91929A"/>
<stop offset="0.88" stop-color="#84858F"/>
</linearGradient>
<linearGradient id="paint10_linear_4_163231" x1="23.3017" y1="22.9283" x2="21.7721" y2="20.284" gradientUnits="userSpaceOnUse">
<stop offset="0.04" stop-color="#A5A7B3"/>
<stop offset="0.12" stop-color="#B3B4BE"/>
<stop offset="0.31" stop-color="#C3C3CA"/>
<stop offset="0.84" stop-color="#EEF2F7"/>
<stop offset="0.92" stop-color="#EEF2F7"/>
<stop offset="0.93" stop-color="#EEF2F7"/>
</linearGradient>
<linearGradient id="paint11_linear_4_163231" x1="1.71649" y1="29.5592" x2="19.0383" y2="-0.446798" gradientUnits="userSpaceOnUse">
<stop offset="0.12" stop-color="#A5A7B3"/>
<stop offset="0.13" stop-color="#B3B4BE"/>
<stop offset="0.47" stop-color="#C3C3CA"/>
<stop offset="0.57" stop-color="#E3E3E3"/>
<stop offset="0.58" stop-color="#E5E6E8"/>
<stop offset="0.63" stop-color="#EBEFF3"/>
<stop offset="0.67" stop-color="#EEF2F7"/>
<stop offset="0.74" stop-color="#ECF0F4"/>
<stop offset="0.78" stop-color="#E7E9EC"/>
<stop offset="0.81" stop-color="#E2E2E2"/>
<stop offset="1" stop-color="#D7D7D9"/>
</linearGradient>
<linearGradient id="paint12_linear_4_163231" x1="11.9029" y1="35.4824" x2="29.2329" y2="5.46822" gradientUnits="userSpaceOnUse">
<stop offset="0.12" stop-color="#A5A7B3"/>
<stop offset="0.13" stop-color="#B3B4BE"/>
<stop offset="0.47" stop-color="#C3C3CA"/>
<stop offset="0.57" stop-color="#E3E3E3"/>
<stop offset="0.58" stop-color="#E5E6E8"/>
<stop offset="0.63" stop-color="#EBEFF3"/>
<stop offset="0.67" stop-color="#EEF2F7"/>
<stop offset="0.74" stop-color="#ECF0F4"/>
<stop offset="0.78" stop-color="#E7E9EC"/>
<stop offset="0.81" stop-color="#E2E2E2"/>
<stop offset="1" stop-color="#D7D7D9"/>
</linearGradient>
</defs>
</svg>
