<svg width="24" height="24" viewBox="0 0 24 24" fill="none" xmlns="http://www.w3.org/2000/svg">
<path fill-rule="evenodd" clip-rule="evenodd" d="M3.5 12C3.5 7.315 7.315 3.5 12 3.5C16.685 3.5 20.5 7.315 20.5 12C20.5 16.685 16.685 20.5 12 20.5C7.315 20.5 3.5 16.685 3.5 12ZM4.5 12C4.5 16.135 7.865 19.5 12 19.5C16.135 19.5 19.5 16.135 19.5 12C19.5 7.865 16.135 4.5 12 4.5C7.865 4.5 4.5 7.865 4.5 12ZM12.5002 11.5H16.0002C16.2752 11.5 16.5002 11.725 16.5002 12C16.5002 12.275 16.2752 12.5 16.0002 12.5H12.5002V16C12.5002 16.275 12.2752 16.5 12.0002 16.5C11.7252 16.5 11.5002 16.275 11.5002 16V12.5H8.0002C7.7252 12.5 7.5002 12.275 7.5002 12C7.5002 11.725 7.7252 11.5 8.0002 11.5H11.5002V8.00001C11.5002 7.72501 11.7252 7.50001 12.0002 7.50001C12.2752 7.50001 12.5002 7.72501 12.5002 8.00001V11.5Z" fill="#131C20"/>
</svg>
